<svg width="345" height="429" viewBox="0 0 345 429" fill="none" xmlns="http://www.w3.org/2000/svg">
<g id="Group 2">
<g id="Frame 1" clip-path="url(#clip0_0_1)">
<g id="Vector 7" filter="url(#filter0_di_0_1)">
<path d="M179.506 364.314C168.306 377.914 60.1729 412.648 7.50628 428.314H0.0062757C0.172942 359.981 0.406276 217.714 0.0062757 195.314C-0.493724 167.314 29.0063 124.314 44.5063 105.314C60.0063 86.3144 113.658 48.5822 144.006 44.3145C176.006 39.8145 193.21 33.6938 204.006 27.3144C215.006 20.8144 220.506 5.81447 253.006 0.814428C286.889 -4.39832 316.673 16.6478 327.506 28.8144C335.673 37.3144 350.106 54.8144 342.506 56.8144C279.506 38.8144 234.006 63.8144 211.006 98.3144C148.506 116.814 141.506 157.814 141.506 191.814C141.506 225.814 170.506 245.314 188.506 290.314C206.506 335.314 193.506 347.314 179.506 364.314Z" fill="url(#paint0_linear_0_1)"/>
</g>
<g id="Mask group">
<mask id="mask0_0_1" style="mask-type:alpha" maskUnits="userSpaceOnUse" x="0" y="0" width="345" height="429">
<path id="Vector 8" d="M179.506 364.314C168.306 377.914 60.1729 412.648 7.50628 428.314H0.0062757C0.172942 359.981 0.406276 217.714 0.0062757 195.314C-0.493724 167.314 29.0063 124.314 44.5063 105.314C60.0063 86.3144 113.658 48.5822 144.006 44.3145C176.006 39.8145 193.21 33.6938 204.006 27.3144C215.006 20.8144 220.506 5.81447 253.006 0.814428C286.889 -4.39832 316.673 16.6478 327.506 28.8144C335.673 37.3144 350.106 54.8144 342.506 56.8144C279.506 38.8144 234.006 63.8144 211.006 98.3144C148.506 116.814 141.506 157.814 141.506 191.814C141.506 225.814 170.506 245.314 188.506 290.314C206.506 335.314 193.506 347.314 179.506 364.314Z" fill="url(#paint1_linear_0_1)"/>
</mask>
<g mask="url(#mask0_0_1)">
<g id="Ellipse 1" filter="url(#filter1_f_0_1)">
<path d="M178.006 214.314C178.006 266.782 211.973 358.814 159.506 358.814C107.039 358.814 71.0063 257.782 71.0063 205.314C71.0063 152.847 125.539 82.3145 178.006 82.3145C230.473 82.3145 178.006 161.847 178.006 214.314Z" fill="#BECEDE"/>
</g>
</g>
</g>
</g>
</g>
<defs>
<filter id="filter0_di_0_1" x="-11" y="-5" width="366.649" height="450.314" filterUnits="userSpaceOnUse" color-interpolation-filters="sRGB">
<feFlood flood-opacity="0" result="BackgroundImageFix"/>
<feColorMatrix in="SourceAlpha" type="matrix" values="0 0 0 0 0 0 0 0 0 0 0 0 0 0 0 0 0 0 127 0" result="hardAlpha"/>
<feOffset dy="6"/>
<feGaussianBlur stdDeviation="5.5"/>
<feComposite in2="hardAlpha" operator="out"/>
<feColorMatrix type="matrix" values="0 0 0 0 1 0 0 0 0 1 0 0 0 0 1 0 0 0 1 0"/>
<feBlend mode="normal" in2="BackgroundImageFix" result="effect1_dropShadow_0_1"/>
<feBlend mode="normal" in="SourceGraphic" in2="effect1_dropShadow_0_1" result="shape"/>
<feColorMatrix in="SourceAlpha" type="matrix" values="0 0 0 0 0 0 0 0 0 0 0 0 0 0 0 0 0 0 127 0" result="hardAlpha"/>
<feOffset dy="7"/>
<feGaussianBlur stdDeviation="2"/>
<feComposite in2="hardAlpha" operator="arithmetic" k2="-1" k3="1"/>
<feColorMatrix type="matrix" values="0 0 0 0 1 0 0 0 0 1 0 0 0 0 1 0 0 0 0.5 0"/>
<feBlend mode="normal" in2="shape" result="effect2_innerShadow_0_1"/>
</filter>
<filter id="filter1_f_0_1" x="-12.9937" y="-1.68555" width="298.319" height="444.5" filterUnits="userSpaceOnUse" color-interpolation-filters="sRGB">
<feFlood flood-opacity="0" result="BackgroundImageFix"/>
<feBlend mode="normal" in="SourceGraphic" in2="BackgroundImageFix" result="shape"/>
<feGaussianBlur stdDeviation="42" result="effect1_foregroundBlur_0_1"/>
</filter>
<linearGradient id="paint0_linear_0_1" x1="206.506" y1="33.8145" x2="-0.493623" y2="428.314" gradientUnits="userSpaceOnUse">
<stop stop-color="#EFF3F6"/>
<stop offset="0.591726" stop-color="#DAD4BD"/>
<stop offset="1" stop-color="#E5C463"/>
</linearGradient>
<linearGradient id="paint1_linear_0_1" x1="206.506" y1="33.8145" x2="-0.493623" y2="428.314" gradientUnits="userSpaceOnUse">
<stop stop-color="#EFF3F6"/>
<stop offset="0.591726" stop-color="#DAD4BD"/>
<stop offset="1" stop-color="#E5C463"/>
</linearGradient>
<clipPath id="clip0_0_1">
<rect width="344.649" height="428.314" fill="white"/>
</clipPath>
</defs>
</svg>
